<svg xmlns="http://www.w3.org/2000/svg" viewBox="0 0 1200 260" role="img" aria-labelledby="title desc">
  <title id="title">Seerxo Etsy SEO</title>
  <desc id="desc">Generate, audit, optimize, and research Etsy listings</desc>
  <defs>
    <linearGradient id="background" x1="0%" y1="0%" x2="100%" y2="100%">
      <stop offset="0%" stop-color="#FAF5FF" />
      <stop offset="100%" stop-color="#EDE9FE" />
    </linearGradient>
    <linearGradient id="spark" x1="0%" y1="0%" x2="100%" y2="100%">
      <stop offset="0%" stop-color="#C084FC" />
      <stop offset="100%" stop-color="#4C1D95" />
    </linearGradient>
  </defs>
  <rect x="1" y="1" width="1198" height="258" rx="28" fill="url(#background)" stroke="#D8B4FE" stroke-width="2" />
  <g transform="translate(58 36) scale(7.8)" stroke-linecap="round" stroke-linejoin="round">
    <path d="M11.017 2.814a1 1 0 0 1 1.966 0l1.051 5.558a2 2 0 0 0 1.594 1.594l5.558 1.051a1 1 0 0 1 0 1.966l-5.558 1.051a2 2 0 0 0-1.594 1.594l-1.051 5.558a1 1 0 0 1-1.966 0l-1.051-5.558a2 2 0 0 0-1.594-1.594l-5.558-1.051a1 1 0 0 1 0-1.966l5.558-1.051a2 2 0 0 0 1.594-1.594z" fill="none" stroke="url(#spark)" stroke-width="2" />
    <path d="M20 2v4M22 4h-4" fill="none" stroke="#C084FC" stroke-width="2" />
    <circle cx="4" cy="20" r="2" fill="none" stroke="#C084FC" stroke-width="2" />
  </g>
  <text x="290" y="120" fill="#2E1065" font-family="Inter, ui-sans-serif, system-ui, sans-serif" font-size="58" font-weight="750">Seerxo Etsy SEO</text>
  <text x="292" y="172" fill="#6D28D9" font-family="Inter, ui-sans-serif, system-ui, sans-serif" font-size="28" font-weight="500">Generate · Audit · Optimize · Research</text>
</svg>
