<svg xmlns="http://www.w3.org/2000/svg" viewBox="0 0 24 24" role="img" aria-label="Seerxo sparkles">
  <defs>
    <linearGradient id="spark-stroke" x1="0%" y1="0%" x2="100%" y2="100%">
      <stop offset="0%" stop-color="#C084FC" />
      <stop offset="100%" stop-color="#4C1D95" />
    </linearGradient>
  </defs>
  <path d="M11.017 2.814a1 1 0 0 1 1.966 0l1.051 5.558a2 2 0 0 0 1.594 1.594l5.558 1.051a1 1 0 0 1 0 1.966l-5.558 1.051a2 2 0 0 0-1.594 1.594l-1.051 5.558a1 1 0 0 1-1.966 0l-1.051-5.558a2 2 0 0 0-1.594-1.594l-5.558-1.051a1 1 0 0 1 0-1.966l5.558-1.051a2 2 0 0 0 1.594-1.594z" fill="none" stroke="url(#spark-stroke)" stroke-width="2" stroke-linecap="round" stroke-linejoin="round" />
  <path d="M20 2v4" stroke="#C084FC" stroke-width="2" stroke-linecap="round" />
  <path d="M22 4h-4" stroke="#C084FC" stroke-width="2" stroke-linecap="round" />
  <circle cx="4" cy="20" r="2" fill="none" stroke="#C084FC" stroke-width="2" />
</svg>
